<svg width="19" height="18" viewBox="0 0 19 18" fill="none" xmlns="http://www.w3.org/2000/svg">
<path d="M1.16634 7.87785L1.8339 8.62241L1.8339 8.62241L1.16634 7.87785ZM16.8474 7.87785L16.1799 8.62241L16.1799 8.62241L16.8474 7.87785ZM9.34067 1.14732L10.0082 0.402763L10.0082 0.402762L9.34067 1.14732ZM8.67311 1.14732L9.34067 1.89187V1.89187L8.67311 1.14732ZM7.01379 17H6.01379V18H7.01379V17ZM11.0138 17V18H12.0138V17H11.0138ZM2.00012 8.25013C2.00012 8.3922 1.93968 8.52757 1.8339 8.62241L0.498778 7.1333C0.181438 7.41783 0.00012207 7.82392 0.00012207 8.25013H2.00012ZM2.00012 16.5004V8.25013H0.00012207V16.5004H2.00012ZM1.50012 16.0004C1.77627 16.0004 2.00012 16.2243 2.00012 16.5004H0.00012207C0.00012207 17.3289 0.671692 18.0004 1.50012 18.0004V16.0004ZM16.5137 16.0004H1.50012V18.0004H16.5137V16.0004ZM16.0137 16.5004C16.0137 16.2243 16.2375 16.0004 16.5137 16.0004V18.0004C17.3421 18.0004 18.0137 17.3289 18.0137 16.5004H16.0137ZM16.0137 8.25013V16.5004H18.0137V8.25013H16.0137ZM16.1799 8.62241C16.0741 8.52756 16.0137 8.3922 16.0137 8.25013H18.0137C18.0137 7.82392 17.8323 7.41783 17.515 7.1333L16.1799 8.62241ZM8.67311 1.89187L16.1799 8.62241L17.515 7.1333L10.0082 0.402763L8.67311 1.89187ZM9.34067 1.89187C9.15073 2.06217 8.86305 2.06217 8.67311 1.89187L10.0082 0.402762C9.43842 -0.108131 8.57536 -0.108132 8.00555 0.402763L9.34067 1.89187ZM1.8339 8.62241L9.34067 1.89187L8.00555 0.402763L0.498777 7.1333L1.8339 8.62241ZM8.01379 12C8.01379 11.4477 8.46151 11 9.01379 11V9.00001C7.35694 9.00001 6.01379 10.3432 6.01379 12H8.01379ZM8.01379 17V12H6.01379V17H8.01379ZM11.0138 16H7.01379V18H11.0138V16ZM10.0138 12V17H12.0138V12H10.0138ZM9.01379 11C9.56608 11 10.0138 11.4477 10.0138 12H12.0138C12.0138 10.3432 10.6706 9.00001 9.01379 9.00001V11Z" fill="#686868"/>
</svg>
